<?xml version="1.0" encoding="iso-8859-1"?>
<!-- Generator: Adobe Illustrator 19.0.0, SVG Export Plug-In . SVG Version: 6.00 Build 0)  -->
<svg version="1.1" id="Capa_1" xmlns="http://www.w3.org/2000/svg" xmlns:xlink="http://www.w3.org/1999/xlink" x="0px" y="0px"
	 viewBox="0 0 480 480" style="enable-background:new 0 0 480 480;" xml:space="preserve">
<path style="fill:#F99898;" d="M272.702,280.089c35.426-18.061,49.504-61.421,31.443-96.847
	c-18.061-35.426-61.421-49.504-96.847-31.443s-49.504,61.421-31.443,96.847c6.901,13.536,17.907,24.542,31.443,31.443
	C163.243,281.025,128.014,317,128,361.064V472h224V361.064C351.986,317,316.757,281.025,272.702,280.089z"/>
<path style="fill:#EC322C;" d="M268.03,280c21.658-11.939,35.352-34.477,35.97-59.2c-0.492-34.091-28.527-61.328-62.618-60.835
	c-0.461,0.007-0.921,0.018-1.382,0.035c-33.012-1.06-60.633,24.843-61.692,57.855c-0.031,0.981-0.039,1.963-0.022,2.945
	c-0.267,24.363,12.603,46.984,33.684,59.2c-37.669,0.858-75.97,36.233-75.97,76.152V472h208V356.152
	C344,316.233,305.699,280.858,268.03,280z"/>
<g>
	<path style="fill:#6FF0F7;" d="M232,48h16v32h-16V48z"/>
	<path style="fill:#6FF0F7;" d="M311.032,90.327L333.659,67.7l11.313,11.313l-22.627,22.627L311.032,90.327z"/>
	<path style="fill:#6FF0F7;" d="M408,464h32v16h-32V464z"/>
	<path style="fill:#6FF0F7;" d="M408,384h32v16h-32V384z"/>
	<path style="fill:#6FF0F7;" d="M408,304h32v16h-32V304z"/>
	<path style="fill:#6FF0F7;" d="M398.318,229.477l30.357-10.124l5.062,15.18l-30.357,10.124L398.318,229.477z"/>
	<path style="fill:#6FF0F7;" d="M373.469,146.514l30.358-10.124l5.062,15.18l-30.358,10.124L373.469,146.514z"/>
	<path style="fill:#6FF0F7;" d="M135.033,79.023l11.314-11.312l22.625,22.629l-11.314,11.312L135.033,79.023z"/>
	<path style="fill:#6FF0F7;" d="M40,464h32v16H40V464z"/>
	<path style="fill:#6FF0F7;" d="M40,384h32v16H40V384z"/>
	<path style="fill:#6FF0F7;" d="M40,304h32v16H40V304z"/>
	<path style="fill:#6FF0F7;" d="M46.295,234.528l5.059-15.181l30.359,10.117l-5.059,15.181L46.295,234.528z"/>
	<path style="fill:#6FF0F7;" d="M71.108,151.588l5.061-15.18l30.359,10.121l-5.061,15.18L71.108,151.588z"/>
</g>
<g>
	<path style="fill:#FCD821;" d="M440,80c-4.417,0.001-7.999-3.579-8-7.996c0-0.001,0-0.003,0-0.004
		c-0.014-13.249-10.751-23.986-24-24c-4.418,0-8-3.582-8-8s3.582-8,8-8c13.249-0.014,23.986-10.751,24-24c0-4.418,3.582-8,8-8
		s8,3.582,8,8c0.014,13.249,10.751,23.986,24,24c4.418,0,8,3.582,8,8s-3.582,8-8,8c-13.249,0.014-23.986,10.751-24,24
		c0.001,4.417-3.579,7.999-7.996,8C440.003,80,440.001,80,440,80z M431.977,40c3.039,2.283,5.74,4.984,8.023,8.023
		c2.283-3.039,4.984-5.74,8.023-8.023c-3.039-2.283-5.74-4.984-8.023-8.023C437.717,35.016,435.016,37.717,431.977,40z"/>
	<path style="fill:#FCD821;" d="M40,80c-4.417,0.001-7.999-3.579-8-7.996c0-0.001,0-0.003,0-0.004C31.986,58.751,21.249,48.014,8,48
		c-4.418,0-8-3.582-8-8s3.582-8,8-8c13.249-0.014,23.986-10.751,24-24c0-4.418,3.582-8,8-8s8,3.582,8,8
		c0.014,13.249,10.751,23.986,24,24c4.418,0,8,3.582,8,8s-3.582,8-8,8c-13.249,0.014-23.986,10.751-24,24
		c0.001,4.417-3.579,7.999-7.996,8C40.003,80,40.001,80,40,80z M31.977,40c3.039,2.283,5.74,4.984,8.023,8.023
		c2.283-3.039,4.984-5.74,8.023-8.023c-3.039-2.283-5.74-4.984-8.023-8.023C37.717,35.016,35.016,37.717,31.977,40z"/>
</g>
<g>
</g>
<g>
</g>
<g>
</g>
<g>
</g>
<g>
</g>
<g>
</g>
<g>
</g>
<g>
</g>
<g>
</g>
<g>
</g>
<g>
</g>
<g>
</g>
<g>
</g>
<g>
</g>
<g>
</g>
</svg>
